<svg width="567" height="108" viewBox="0 0 567 108" fill="none" xmlns="http://www.w3.org/2000/svg">
<g clip-path="url(#clip0_4284_282)">
<path d="M122.398 29H5.22449V79H122.398V29Z" fill="url(#paint0_linear_4284_282)"/>
<path d="M104.506 63.6555V52.4367C104.506 51.6277 104.214 51.0415 103.635 50.6759C103.054 50.3102 102.332 50.1274 101.465 50.1274C101.04 50.1274 100.636 50.161 100.249 50.2283C99.8617 50.2955 99.5389 50.3775 99.2806 50.4741V63.6555H94.6096V48.5683C95.4385 48.2405 96.461 47.9673 97.6771 47.7467C98.8954 47.526 100.212 47.4147 101.632 47.4147C104.083 47.4147 105.953 47.8118 107.244 48.6124C108.533 49.4088 109.179 50.6654 109.179 52.3779V63.6555H104.506Z" fill="white"/>
<path d="M63.1398 63.6537V47.6125C64.6975 47.6125 66.2802 47.6987 67.8129 47.8878V63.6516H63.1398V63.6537Z" fill="white"/>
<path d="M68.0595 43.3749C68.0595 43.9506 67.8054 44.4465 67.2994 44.8605C66.7933 45.2745 66.1811 45.4804 65.4606 45.4804C64.74 45.4804 64.1319 45.2745 63.6363 44.8605C63.1386 44.4465 62.8887 43.9506 62.8887 43.3749C62.8887 42.7991 63.1386 42.3032 63.6363 41.8893C64.134 41.4753 64.7421 41.2694 65.4606 41.2694C66.179 41.2694 66.7913 41.4753 67.2994 41.8893C67.8054 42.3032 68.0595 42.7991 68.0595 43.3749Z" fill="white"/>
<path d="M60.2398 50.5582C59.5942 50.346 58.907 50.2304 58.1802 50.2136C57.4513 50.1947 56.8578 50.2913 56.3976 50.5015V63.6555H51.7266V48.5683C52.5929 48.2027 53.6029 47.919 54.7524 47.7173C55.904 47.5155 57.3181 47.4147 58.9965 47.4147C59.3651 47.4147 59.7525 47.4231 60.1586 47.4441C60.5647 47.463 60.8854 47.4924 61.1269 47.5302L60.2419 50.5582H60.2398Z" fill="white"/>
<path d="M32.2466 55.1742C32.2466 57.8848 31.4823 59.9966 29.9517 61.5074C28.4211 63.0162 26.2199 63.7705 23.3439 63.7705C21.8695 63.7705 20.6117 63.6612 19.5705 63.4385C18.5292 63.2179 17.7129 62.9426 17.1235 62.6169V40.7216H21.7675V48.0781C22.1736 47.9247 22.6526 47.7861 23.2044 47.66C23.7584 47.536 24.431 47.473 25.2223 47.473C26.2553 47.473 27.2049 47.66 28.0712 48.0361C28.9375 48.4101 29.6789 48.9355 30.2974 49.6079C30.9138 50.2824 31.3949 51.0893 31.7343 52.0328C32.0758 52.9741 32.2466 54.0227 32.2466 55.1763M27.4902 55.4368C27.4902 54.6678 27.4256 53.9512 27.2965 53.2872C27.1674 52.6232 26.9571 52.0475 26.6613 51.5558C26.3656 51.0662 25.9929 50.6858 25.541 50.4169C25.0891 50.1479 24.531 50.0134 23.8687 50.0134C23.0024 50.0134 22.3027 50.1395 21.7675 50.3896V60.8035C21.9695 60.9002 22.2194 60.9758 22.513 61.0346C22.8087 61.0914 23.1669 61.1208 23.5918 61.1208C24.9016 61.1208 25.8762 60.6018 26.5218 59.5637C27.1674 58.5257 27.4881 57.1494 27.4881 55.4389" fill="white"/>
<path d="M49.1668 63.6536C49.1668 63.6536 41.8261 63.765 41.1617 63.765C40.0955 63.765 39.1167 63.5843 38.2192 63.2249C37.3237 62.8635 36.5511 62.3529 35.9076 61.6889C35.2641 61.027 34.7581 60.2222 34.3957 59.2766C34.0313 58.331 33.848 57.2636 33.848 56.0743C33.848 54.7673 34.0354 53.5843 34.4103 52.521C34.7831 51.4599 35.3495 50.5458 36.1054 49.7872C36.8635 49.0266 37.8068 48.4424 38.9376 48.0306C40.0663 47.6229 41.3887 47.417 42.9027 47.417C44.2292 47.417 45.4538 47.5284 46.5741 47.7532C47.6945 47.978 48.5546 48.1482 49.171 48.4802V63.6536H49.1668ZM44.4687 50.3714C44.2626 50.2726 44.0106 50.1865 43.7128 50.1066C43.415 50.0289 43.0485 49.989 42.6195 49.989C41.2929 49.989 40.3017 50.487 39.6478 51.4809C38.9939 52.4769 38.6669 53.9289 38.6669 55.8389C38.6669 59.4657 39.9476 61.277 42.507 61.277C42.8819 61.277 43.2442 61.2434 43.6003 61.1741C43.9564 61.1068 44.2459 61.0123 44.4687 60.8967V50.3693V50.3714Z" fill="white"/>
<path d="M81.5218 66.8931C87.5818 66.7481 92.3778 61.7148 92.2341 55.6498C92.1841 53.5523 91.549 51.6078 90.4911 49.9657C88.3836 49.9375 86.2636 50.548 85.4743 50.7596C86.9237 51.9463 87.865 53.7336 87.9129 55.7526C87.9796 58.5493 86.3136 60.9833 83.8958 62.0271C83.6376 61.4266 83.5418 61.201 83.2877 60.6146C80.922 62.0009 77.4817 63.5463 73.5354 63.7156C75.5804 65.7426 78.4147 66.9657 81.5218 66.8911" fill="white"/>
<path d="M80.9953 44.9298C74.9331 45.0749 70.1392 50.1082 70.2829 56.1711C70.3329 58.2687 70.966 60.2131 72.026 61.8553C74.1335 61.8855 76.2534 61.2709 77.0427 61.0634C75.5954 59.8766 74.652 58.0893 74.6062 56.0704C74.5395 53.2736 76.2055 50.8396 78.6233 49.7959C78.8795 50.3983 78.9773 50.622 79.2314 51.2083C81.595 49.8221 85.0374 48.2766 88.9837 48.1073C86.9387 46.0823 84.1023 44.8573 80.9974 44.9318" fill="white"/>
</g>
<path d="M191.696 34.2496H169.092V74.1489H191.696V34.2496Z" fill="#F16522"/>
<path d="M170.531 54.2018C170.531 46.1076 174.388 38.8991 180.398 34.2522C176.004 30.8547 170.46 28.8279 164.433 28.8279C150.169 28.8279 138.602 40.1875 138.602 54.204C138.602 68.2205 150.166 79.5801 164.433 79.5801C170.46 79.5801 176.004 77.5533 180.398 74.1558C174.391 69.5089 170.531 62.3003 170.531 54.2061" fill="#E41B24"/>
<path d="M222.194 54.1996C222.194 68.214 210.63 79.5757 196.363 79.5757C190.336 79.5757 184.792 77.5489 180.398 74.1515C186.408 69.5046 190.265 62.296 190.265 54.2018C190.265 46.1076 186.408 38.8991 180.398 34.2522C184.792 30.8547 190.336 28.8279 196.363 28.8279C210.627 28.8279 222.194 40.1875 222.194 54.204" fill="#F89E1C"/>
<path d="M277.192 38.6643L263.17 70.3172H254.022L247.121 45.0561C246.703 43.5016 246.338 42.9298 245.064 42.2746C242.984 41.2061 239.549 40.2039 236.528 39.583L236.731 38.6643H251.458C253.334 38.6643 255.022 39.8463 255.45 41.8913L259.094 60.208L268.101 38.6622H277.194L277.192 38.6643ZM313.036 59.9832C313.072 51.63 300.824 51.1696 300.91 47.4373C300.937 46.3024 302.078 45.0947 304.581 44.7863C305.821 44.6322 309.239 44.5144 313.113 46.2017L314.634 39.4909C312.552 38.7757 309.872 38.0862 306.539 38.0862C297.984 38.0862 291.964 42.3902 291.914 48.5508C291.857 53.1075 296.21 55.6492 299.489 57.1631C302.861 58.7155 303.993 59.7113 303.981 61.0988C303.956 63.223 301.29 64.1588 298.801 64.1952C294.451 64.2594 291.925 63.0817 289.913 62.1973L288.345 69.1309C290.366 70.0088 294.098 70.7733 297.968 70.8118C307.061 70.8118 313.009 66.5634 313.036 59.9811M335.625 70.315H343.63L336.641 38.6622H329.254C327.593 38.6622 326.19 39.5765 325.572 40.9834L312.586 70.315H321.672L323.476 65.587H334.579L335.625 70.315ZM325.968 59.101L330.524 47.2146L333.144 59.101H325.968ZM289.556 38.6622L282.4 70.315H273.745L280.904 38.6622H289.556Z" fill="#1434CB"/>
<g clip-path="url(#clip1_4284_282)">
<path d="M438.48 26.7919H368.704C368.413 26.7919 368.122 26.7919 367.832 26.7936C367.587 26.7953 367.342 26.798 367.098 26.8047C366.564 26.8191 366.026 26.8506 365.499 26.9453C364.964 27.0417 364.466 27.1988 363.98 27.4462C363.502 27.6892 363.065 28.0069 362.686 28.3861C362.306 28.7653 361.989 29.202 361.746 29.6802C361.498 30.1662 361.341 30.6644 361.245 31.2002C361.15 31.7272 361.118 32.2652 361.104 32.7982C361.097 33.0429 361.095 33.2875 361.093 33.5321C361.091 33.8228 361.092 34.1133 361.092 34.4045V73.596C361.092 73.8872 361.091 74.1772 361.093 74.4685C361.095 74.7131 361.097 74.9577 361.104 75.2024C361.118 75.7349 361.15 76.2729 361.245 76.7998C361.341 77.3357 361.498 77.8338 361.746 78.3198C361.989 78.7981 362.306 79.2353 362.686 79.6139C363.065 79.9937 363.502 80.3114 363.98 80.5538C364.466 80.8019 364.964 80.959 365.499 81.0553C366.026 81.1494 366.564 81.1815 367.098 81.1959C367.342 81.2014 367.587 81.2047 367.832 81.2058C368.122 81.2081 368.413 81.2081 368.704 81.2081H438.48C438.77 81.2081 439.061 81.2081 439.351 81.2058C439.596 81.2047 439.84 81.2014 440.086 81.1959C440.618 81.1815 441.157 81.1494 441.685 81.0553C442.219 80.959 442.717 80.8019 443.203 80.5538C443.682 80.3114 444.118 79.9937 444.498 79.6139C444.876 79.2353 445.194 78.7981 445.438 78.3198C445.686 77.8338 445.843 77.3357 445.938 76.7998C446.033 76.2729 446.064 75.7349 446.078 75.2024C446.085 74.9577 446.088 74.7131 446.09 74.4685C446.092 74.1772 446.092 73.8872 446.092 73.596V34.4045C446.092 34.1133 446.092 33.8228 446.09 33.5321C446.088 33.2875 446.085 33.0429 446.078 32.7982C446.064 32.2652 446.033 31.7272 445.938 31.2002C445.843 30.6644 445.686 30.1662 445.438 29.6802C445.194 29.202 444.876 28.7653 444.498 28.3861C444.118 28.0069 443.682 27.6892 443.203 27.4462C442.717 27.1988 442.219 27.0417 441.685 26.9453C441.157 26.8506 440.618 26.8191 440.086 26.8047C439.84 26.798 439.596 26.7953 439.351 26.7936C439.061 26.7919 438.77 26.7919 438.48 26.7919Z" fill="black"/>
<path d="M438.48 28.6056L439.338 28.6072C439.571 28.6089 439.803 28.6114 440.037 28.6178C440.444 28.6288 440.919 28.6508 441.363 28.7303C441.748 28.7997 442.072 28.9053 442.382 29.0632C442.688 29.2189 442.969 29.4229 443.214 29.6676C443.46 29.9139 443.664 30.195 443.822 30.5047C443.979 30.8126 444.084 31.1344 444.153 31.5227C444.232 31.9614 444.254 32.4384 444.265 32.8477C444.272 33.0786 444.275 33.3096 444.276 33.5461C444.278 33.8321 444.278 34.1179 444.278 34.4045V73.5959C444.278 73.8825 444.278 74.1678 444.276 74.4599C444.275 74.6908 444.272 74.9218 444.265 75.1532C444.254 75.5618 444.232 76.0386 444.152 76.4825C444.084 76.8655 443.979 77.1873 443.821 77.4967C443.664 77.8056 443.46 78.0864 443.215 78.3312C442.969 78.5777 442.689 78.7811 442.379 78.9382C442.071 79.0954 441.748 79.2009 441.366 79.2696C440.914 79.3502 440.418 79.3724 440.045 79.3825C439.81 79.3878 439.576 79.391 439.337 79.3921C439.051 79.3943 438.765 79.3943 438.48 79.3943H368.704C368.7 79.3943 368.696 79.3943 368.692 79.3943C368.41 79.3943 368.128 79.3943 367.84 79.392C367.606 79.391 367.372 79.3878 367.147 79.3827C366.765 79.3724 366.269 79.3502 365.82 79.2701C365.435 79.2009 365.112 79.0954 364.8 78.9361C364.493 78.7804 364.214 78.5773 363.967 78.3303C363.722 78.0861 363.519 77.8062 363.362 77.4968C363.204 77.1877 363.099 76.8649 363.03 76.4773C362.95 76.0343 362.928 75.5594 362.917 75.1536C362.911 74.9212 362.908 74.6889 362.907 74.4579L362.906 73.776L362.906 73.5959V34.4045L362.906 34.2244L362.907 33.544C362.908 33.3116 362.911 33.0793 362.917 32.8471C362.928 32.4408 362.95 31.9657 363.031 31.5191C363.099 31.135 363.204 30.8122 363.363 30.5015C363.519 30.1945 363.722 29.9142 363.968 29.6683C364.213 29.4233 364.494 29.2196 364.803 29.0624C365.111 28.9052 365.435 28.7997 365.82 28.7304C366.263 28.6507 366.739 28.6288 367.147 28.6177C367.379 28.6114 367.612 28.6089 367.843 28.6073L368.704 28.6056H438.48Z" fill="white"/>
<path d="M384.296 45.0943C385.024 44.184 385.518 42.9617 385.388 41.7126C384.322 41.7656 383.022 42.4155 382.27 43.3265C381.594 44.1067 380.996 45.3802 381.151 46.5768C382.347 46.6806 383.542 45.979 384.296 45.0943Z" fill="black"/>
<path d="M385.374 46.8105C383.637 46.7071 382.161 47.7962 381.331 47.7962C380.501 47.7962 379.231 46.8627 377.857 46.8878C376.069 46.9141 374.41 47.925 373.503 49.5329C371.637 52.7494 373.011 57.5207 374.825 60.1404C375.707 61.4364 376.769 62.8635 378.168 62.8122C379.491 62.7603 380.009 61.956 381.616 61.956C383.222 61.956 383.689 62.8122 385.089 62.7863C386.541 62.7603 387.448 61.4896 388.329 60.1923C389.34 58.7149 389.754 57.2883 389.78 57.21C389.754 57.184 386.981 56.1202 386.956 52.9304C386.929 50.2596 389.133 48.9891 389.236 48.9104C387.992 47.0701 386.048 46.8627 385.374 46.8105Z" fill="black"/>
<path d="M400.497 43.1959C404.272 43.1959 406.9 45.798 406.9 49.5865C406.9 53.3885 404.218 56.0041 400.402 56.0041H396.223V62.6508H393.203V43.1959L400.497 43.1959ZM396.223 53.4693H399.688C402.317 53.4693 403.813 52.0539 403.813 49.6C403.813 47.1464 402.317 45.7442 399.701 45.7442H396.223V53.4693Z" fill="black"/>
<path d="M407.689 58.6197C407.689 56.1388 409.59 54.6154 412.961 54.4266L416.844 54.1975V53.1055C416.844 51.528 415.779 50.5843 413.999 50.5843C412.314 50.5843 411.262 51.3931 411.006 52.6606H408.256C408.418 50.0988 410.602 48.2113 414.107 48.2113C417.545 48.2113 419.742 50.0314 419.742 52.8761V62.6508H416.952V60.3184H416.884C416.062 61.8958 414.269 62.8934 412.408 62.8934C409.631 62.8934 407.689 61.1677 407.689 58.6197ZM416.844 57.3389V56.2199L413.352 56.4355C411.613 56.5569 410.629 57.3254 410.629 58.5388C410.629 59.779 411.653 60.588 413.217 60.588C415.253 60.588 416.844 59.1858 416.844 57.3389Z" fill="black"/>
<path d="M422.377 67.8686V65.5091C422.593 65.5629 423.078 65.5629 423.321 65.5629C424.669 65.5629 425.397 64.9968 425.842 63.5408C425.842 63.5137 426.098 62.6779 426.098 62.6644L420.975 48.4675H424.13L427.716 60.0084H427.77L431.356 48.4675H434.43L429.118 63.3923C427.905 66.8304 426.503 67.9359 423.564 67.9359C423.321 67.9359 422.593 67.9089 422.377 67.8686Z" fill="black"/>
</g>
<g clip-path="url(#clip2_4284_282)">
<path d="M534.733 27.3606H488.411C473.936 27.3606 462.092 39.1247 462.092 53.503C462.092 67.8813 473.936 79.6454 488.411 79.6454H534.733C549.209 79.6454 561.053 67.8813 561.053 53.503C561.053 39.1247 549.209 27.3606 534.733 27.3606Z" fill="white"/>
<path d="M534.733 29.4781C537.984 29.4781 541.142 30.1186 544.116 31.3735C546.998 32.5891 549.577 34.3275 551.815 36.5366C554.039 38.7456 555.789 41.3206 557.013 44.1832C558.276 47.1373 558.921 50.2744 558.921 53.503C558.921 56.7316 558.276 59.8687 557.013 62.8228C555.789 65.6854 554.039 68.2473 551.815 70.4694C549.591 72.6785 546.998 74.4169 544.116 75.6325C541.142 76.8874 537.984 77.5279 534.733 77.5279H488.411C485.161 77.5279 482.002 76.8874 479.028 75.6325C476.146 74.4169 473.567 72.6785 471.33 70.4694C469.106 68.2604 467.356 65.6854 466.132 62.8228C464.868 59.8687 464.224 56.7316 464.224 53.503C464.224 50.2744 464.868 47.1373 466.132 44.1832C467.356 41.3206 469.106 38.7587 471.33 36.5366C473.554 34.3275 476.146 32.5891 479.028 31.3735C482.002 30.1186 485.161 29.4781 488.411 29.4781H534.733ZM534.733 27.3606H488.411C473.936 27.3606 462.092 39.1247 462.092 53.503C462.092 67.8813 473.936 79.6454 488.411 79.6454H534.733C549.209 79.6454 561.053 67.8813 561.053 53.503C561.053 39.1247 549.209 27.3606 534.733 27.3606Z" fill="#3C4043"/>
<path d="M509.389 55.3592V63.2673H506.862V43.7389H513.56C515.258 43.7389 516.706 44.301 517.89 45.4251C519.101 46.5492 519.706 47.9217 519.706 49.5425C519.706 51.2026 519.101 52.575 517.89 53.6861C516.719 54.7971 515.271 55.3461 513.56 55.3461H509.389V55.3592ZM509.389 46.144V52.9541H513.613C514.613 52.9541 515.455 52.6142 516.113 51.9476C516.784 51.281 517.127 50.4706 517.127 49.5556C517.127 48.6537 516.784 47.8563 516.113 47.1897C515.455 46.4969 514.626 46.1571 513.613 46.1571H509.389V46.144Z" fill="#3C4043"/>
<path d="M526.312 49.464C528.181 49.464 529.655 49.9607 530.734 50.9541C531.813 51.9475 532.352 53.3069 532.352 55.0323V63.2672H529.944V61.4111H529.839C528.799 62.9404 527.404 63.6985 525.667 63.6985C524.18 63.6985 522.943 63.2672 521.943 62.3914C520.943 61.5156 520.443 60.4307 520.443 59.1236C520.443 57.7381 520.969 56.6401 522.022 55.8297C523.075 55.0062 524.483 54.601 526.233 54.601C527.733 54.601 528.97 54.8755 529.931 55.4245V54.8493C529.931 53.9736 529.589 53.2416 528.891 52.6272C528.194 52.0129 527.378 51.7122 526.444 51.7122C525.036 51.7122 523.917 52.3004 523.101 53.4899L520.877 52.1044C522.101 50.3398 523.917 49.464 526.312 49.464ZM523.048 59.1628C523.048 59.8164 523.325 60.3654 523.891 60.7967C524.443 61.2281 525.101 61.4503 525.852 61.4503C526.917 61.4503 527.865 61.0581 528.694 60.2739C529.523 59.4896 529.944 58.5746 529.944 57.5159C529.155 56.9015 528.062 56.5878 526.654 56.5878C525.628 56.5878 524.772 56.8362 524.088 57.3198C523.391 57.8296 523.048 58.4439 523.048 59.1628Z" fill="#3C4043"/>
<path d="M546.091 49.8956L537.669 69.1364H535.063L538.195 62.4048L532.642 49.8956H535.392L539.393 59.4899H539.446L543.341 49.8956H546.091Z" fill="#3C4043"/>
<path d="M499.339 53.7649C499.339 52.9466 499.265 52.1637 499.128 51.4108H488.537V55.7243L494.637 55.7256C494.389 57.1608 493.593 58.3843 492.373 59.1999V61.9984H496.004C498.124 60.0495 499.339 57.1686 499.339 53.7649Z" fill="#4285F4"/>
<path d="M492.374 59.1997C491.364 59.8768 490.062 60.2729 488.54 60.2729C485.598 60.2729 483.103 58.3043 482.21 55.6509H478.465V58.537C480.32 62.1943 484.134 64.704 488.54 64.704C491.585 64.704 494.143 63.7093 496.005 61.997L492.374 59.1997Z" fill="#34A853"/>
<path d="M481.857 53.5102C481.857 52.7651 481.982 52.0449 482.21 51.3678V48.4817H478.465C477.698 49.994 477.266 51.7011 477.266 53.5102C477.266 55.3192 477.699 57.0263 478.465 58.5387L482.21 55.6526C481.982 54.9755 481.857 54.2552 481.857 53.5102Z" fill="#FABB05"/>
<path d="M488.54 46.7455C490.202 46.7455 491.69 47.3141 492.865 48.4251L496.083 45.2318C494.129 43.4241 491.581 42.3143 488.54 42.3143C484.135 42.3143 480.32 44.824 478.465 48.4813L482.21 51.3674C483.103 48.714 485.598 46.7455 488.54 46.7455Z" fill="#E94235"/>
</g>
<defs>
<linearGradient id="paint0_linear_4284_282" x1="78.2682" y1="5.6484" x2="80.2349" y2="108.091" gradientUnits="userSpaceOnUse">
<stop stop-color="#007FDB"/>
<stop offset="0.515625" stop-color="#0097DB"/>
<stop offset="1" stop-color="#99D5F1"/>
</linearGradient>
<clipPath id="clip0_4284_282">
<rect x="5.22449" y="29" width="117.174" height="50" rx="8" fill="white"/>
</clipPath>
<clipPath id="clip1_4284_282">
<rect width="85" height="54.4162" fill="white" transform="translate(361.092 26.7919)"/>
</clipPath>
<clipPath id="clip2_4284_282">
<rect width="98.9609" height="56.0778" fill="white" transform="translate(462.092 25.9611)"/>
</clipPath>
</defs>
</svg>
