<?xml version="1.0" standalone="no"?>
<!DOCTYPE svg PUBLIC "-//W3C//DTD SVG 20010904//EN"
 "http://www.w3.org/TR/2001/REC-SVG-20010904/DTD/svg10.dtd">
<svg version="1.0" xmlns="http://www.w3.org/2000/svg"
 width="1536.000000pt" height="1024.000000pt" viewBox="0 0 1536.000000 1024.000000"
 preserveAspectRatio="xMidYMid meet">

<g transform="translate(0.000000,1024.000000) scale(0.100000,-0.100000)"
fill="#7a1c1c" stroke="none">
<path d="M7572 8019 c-353 -47 -683 -147 -1007 -305 -531 -258 -959 -672
-1046 -1012 -62 -243 22 -406 231 -452 61 -13 146 -10 143 5 -1 6 -29 17 -63
26 -127 34 -180 111 -180 259 0 92 23 176 74 277 262 522 1022 1011 1766 1137
196 33 352 41 506 23 234 -27 377 -83 487 -193 76 -76 115 -157 130 -273 39
-316 -189 -662 -643 -973 -246 -169 -594 -336 -920 -443 -99 -33 -253 -74
-259 -70 -1 2 26 52 62 112 77 128 203 346 265 458 327 586 428 834 402 978
-39 209 -302 99 -546 -229 -234 -315 -414 -733 -431 -1001 -7 -112 8 -163 45
-150 4 1 6 38 4 82 -6 147 51 340 176 594 121 248 272 473 402 601 77 76 121
100 146 79 52 -43 -77 -366 -328 -824 -99 -181 -162 -291 -388 -685 -44 -76
-46 -77 -220 -86 -129 -7 -182 2 -228 41 -46 39 -71 29 -52 -20 22 -58 159
-86 330 -67 47 5 87 8 89 6 12 -10 -290 -471 -430 -657 -102 -135 -217 -276
-286 -350 l-46 -49 -96 31 c-118 37 -333 85 -461 102 -143 20 -492 17 -610 -4
-260 -48 -439 -127 -556 -244 -68 -67 -102 -122 -126 -196 -85 -274 130 -487
491 -487 419 0 896 218 1343 613 l67 59 213 -78 c860 -312 1498 -439 2103
-420 295 9 477 45 580 116 79 54 85 131 15 194 -22 20 -45 36 -50 36 -6 0 1
-22 15 -50 33 -65 32 -85 -7 -124 -104 -104 -459 -148 -880 -111 -505 45 -938
157 -1701 440 l-207 78 77 81 c214 223 514 627 744 1002 l36 59 154 39 c182
46 461 141 647 220 576 245 1006 572 1174 893 145 276 126 508 -56 688 -108
107 -258 177 -477 220 -131 26 -438 28 -617 4z m-2505 -3084 c154 -21 278 -48
443 -97 150 -45 173 -55 165 -69 -16 -24 -228 -208 -330 -285 -254 -190 -490
-304 -740 -355 -82 -17 -277 -17 -345 0 -244 61 -356 254 -263 453 76 163 261
283 515 337 51 11 109 22 128 24 92 10 321 5 427 -8z"/>
<path d="M7775 5735 c-27 -10 -51 -12 -77 -6 -46 11 -102 -1 -137 -27 -39 -28
-81 -119 -95 -203 -12 -71 -13 -74 -42 -77 -57 -5 -74 -12 -74 -31 0 -20 44
-41 85 -41 19 0 24 -7 29 -43 10 -64 58 -158 99 -194 43 -38 97 -51 143 -34
28 10 38 9 65 -5 24 -12 45 -15 83 -9 63 8 74 8 161 0 59 -5 75 -3 101 14 66
41 104 117 104 207 l0 54 45 0 c28 0 47 -5 49 -12 2 -7 9 -35 15 -63 20 -86
73 -183 224 -410 81 -121 155 -231 165 -245 10 -14 49 -70 87 -125 112 -164
135 -233 135 -401 0 -122 -11 -192 -71 -449 -139 -592 -115 -871 76 -892 172
-20 277 193 335 678 15 122 22 134 56 94 43 -52 90 -155 147 -326 110 -328
176 -450 280 -516 81 -51 188 -37 224 29 47 87 9 264 -167 788 -126 373 -145
441 -155 555 -14 139 19 230 155 435 171 260 301 579 317 783 6 77 6 77 34 77
28 0 29 -1 29 -52 0 -101 75 -209 156 -224 20 -4 59 -2 86 5 33 7 55 8 68 1
28 -15 93 -12 117 5 16 11 28 13 48 5 104 -40 213 33 255 168 11 35 20 72 20
81 0 13 13 20 53 27 46 8 52 12 52 34 0 23 -4 25 -46 28 l-46 3 -12 70 c-19
114 -63 189 -133 225 -24 12 -48 15 -96 11 -43 -3 -76 0 -98 9 -41 17 -99 17
-139 0 -21 -9 -39 -10 -61 -3 -41 12 -95 2 -128 -24 -67 -53 -110 -187 -81
-255 8 -20 14 -38 13 -40 -2 -1 -25 -4 -51 -5 -44 -3 -49 -1 -67 29 -47 77
-140 78 -201 2 l-32 -40 -610 0 -610 0 -39 36 c-109 98 -238 97 -285 -2 -16
-32 -21 -35 -46 -30 -16 3 -45 6 -64 6 -33 0 -34 1 -19 22 22 31 20 132 -3
183 -42 92 -112 131 -205 114 -41 -7 -60 -6 -89 6 -45 18 -80 18 -132 0z m105
-54 c0 -4 -9 -20 -20 -34 -53 -67 -65 -114 -65 -252 0 -127 1 -132 33 -196 17
-37 32 -69 32 -73 0 -3 -12 -6 -26 -6 -62 0 -119 107 -131 245 -13 159 60 325
144 325 18 0 33 -4 33 -9z m2536 -10 c67 -41 110 -168 101 -301 -9 -130 -51
-220 -114 -247 -32 -13 -37 -12 -68 7 -41 25 -82 104 -91 174 l-7 49 65 -7
c60 -6 66 -5 88 19 20 21 22 28 12 50 -16 36 -34 40 -88 19 -39 -15 -47 -15
-55 -3 -35 55 29 223 95 249 29 12 27 12 62 -9z m208 -17 c47 -49 67 -111 73
-231 9 -162 -34 -272 -118 -298 -32 -10 -32 -1 -5 54 77 151 69 351 -18 466
-33 42 -32 45 4 45 20 0 39 -11 64 -36z m-2944 19 c0 -5 -9 -22 -20 -40 -39
-64 -53 -138 -48 -258 4 -98 8 -118 35 -177 35 -74 28 -90 -23 -59 -35 22 -77
97 -94 170 -35 151 36 371 121 371 16 0 29 -3 29 -7z m410 -3 c51 -28 95 -162
71 -222 l-10 -27 -51 15 c-62 18 -90 7 -90 -36 0 -43 33 -61 106 -58 55 3 59
1 62 -20 7 -45 -28 -135 -68 -174 -64 -64 -121 -44 -173 62 -30 61 -32 70 -32
180 0 134 18 201 70 255 34 37 76 46 115 25z m2714 -19 c86 -90 92 -369 10
-477 -21 -29 -76 -59 -87 -48 -2 2 6 25 19 50 35 70 58 185 51 268 -5 75 -36
178 -62 206 -21 24 -19 30 13 30 18 0 38 -10 56 -29z m-2268 -245 c31 -27 70
-80 107 -144 31 -56 57 -104 57 -107 0 -15 147 -297 187 -359 59 -91 155 -186
221 -220 60 -31 159 -56 220 -56 98 0 261 76 333 157 87 97 141 217 199 446
45 176 87 278 126 303 31 21 52 12 69 -31 59 -141 -87 -565 -317 -918 -103
-159 -133 -224 -147 -320 -17 -117 9 -247 99 -512 197 -572 240 -724 240 -841
0 -62 -3 -77 -21 -95 -25 -25 -58 -20 -107 18 -81 61 -142 182 -236 465 -69
208 -89 256 -139 326 -39 54 -84 82 -131 82 -71 0 -92 -48 -127 -295 -56 -393
-157 -588 -254 -491 -41 41 -59 125 -58 266 1 159 21 287 89 577 30 127 59
267 65 310 19 133 -2 286 -52 384 -20 40 -171 279 -259 409 -31 47 -95 141
-142 210 -46 69 -99 154 -116 190 -39 80 -66 183 -57 218 21 87 75 97 151 28z
m1314 -77 c0 -4 -9 -35 -19 -70 -11 -35 -32 -113 -46 -173 -34 -135 -73 -233
-128 -313 -43 -65 -69 -85 -42 -33 20 38 20 145 0 201 -33 91 -88 136 -198
159 -129 26 -266 -42 -321 -160 -29 -62 -28 -177 1 -242 12 -27 19 -48 15 -48
-13 0 -118 113 -153 165 -31 45 -268 513 -263 518 6 6 1154 2 1154 -4z m-392
-298 c71 -36 102 -95 102 -193 0 -148 -125 -276 -247 -253 -48 9 -114 75 -131
132 -25 83 -12 190 31 254 50 74 163 102 245 60z"/>
</g>
</svg>
