<svg xmlns="http://www.w3.org/2000/svg" viewBox="0 0 96 96" role="img" aria-labelledby="plLogoTitle plLogoDesc">
  <title id="plLogoTitle">PL Personal Training Logo</title>
  <desc id="plLogoDesc">Compact personal training logo with letters P and L and a dumbbell.</desc>
  <defs>
    <linearGradient id="plBg" x1="0" y1="0" x2="1" y2="1">
      <stop offset="0%" stop-color="#0f172a"/>
      <stop offset="100%" stop-color="#1e293b"/>
    </linearGradient>
    <linearGradient id="plAccent" x1="0" y1="0" x2="1" y2="0">
      <stop offset="0%" stop-color="#f97316"/>
      <stop offset="100%" stop-color="#fb923c"/>
    </linearGradient>
  </defs>

  <rect x="4" y="4" width="88" height="88" rx="24" fill="url(#plBg)"/>

  <g fill="url(#plAccent)" opacity="0.95">
    <rect x="10" y="41" width="5" height="14" rx="2"/>
    <rect x="16" y="39" width="6" height="18" rx="2"/>
    <rect x="74" y="39" width="6" height="18" rx="2"/>
    <rect x="81" y="41" width="5" height="14" rx="2"/>
    <rect x="14" y="47" width="68" height="4" rx="2"/>
  </g>

  <g fill="#f8fafc">
    <path d="M28 24h13c9 0 15 5 15 13 0 9-6 14-15 14h-5v16h-8V24zm8 7v13h5c4 0 7-2 7-6s-3-7-7-7h-5z"/>
    <path d="M56 24h8v36h16v7H56V24z"/>
  </g>
</svg>
